<svg xmlns="http://www.w3.org/2000/svg" width="16.456" height="18.714" viewBox="0 0 16.456 18.714">
  <g id="Grupo_8" data-name="Grupo 8" transform="translate(-2.5 -1)">
    <path id="Caminho_961" data-name="Caminho 961" d="M7.5,5.3h6.12a2.873,2.873,0,0,1,2.894,2.847v7.908a2.554,2.554,0,0,0,2.576-2.531V5.387A2.487,2.487,0,0,0,16.8,2.907q-.289-.023-.578-.042A2.582,2.582,0,0,0,13.94,1.5H12.652a2.582,2.582,0,0,0-2.287,1.365c-.193.012-.386.027-.578.042A2.488,2.488,0,0,0,7.5,5.3Zm5.15-2.531a1.277,1.277,0,0,0-1.288,1.265h3.864A1.277,1.277,0,0,0,13.94,2.765Z" transform="translate(-0.636 0)" fill="none" stroke="#f69525" stroke-width="1" fill-rule="evenodd"/>
    <path id="Caminho_962" data-name="Caminho 962" d="M3,9.082A1.6,1.6,0,0,1,4.61,7.5h8.372a1.6,1.6,0,0,1,1.61,1.582v9.489a1.6,1.6,0,0,1-1.61,1.582H4.61A1.6,1.6,0,0,1,3,18.571Zm8.231,3.875a.626.626,0,0,0-.1-.89.652.652,0,0,0-.906.1L8.1,14.777l-.78-.765a.652.652,0,0,0-.894.016.625.625,0,0,0-.016.879L7.7,16.171a.652.652,0,0,0,.958-.052l2.576-3.163Z" transform="translate(0 -0.939)" fill="none" stroke="#f69525" stroke-width="1" fill-rule="evenodd"/>
  </g>
</svg>
