<svg xmlns="http://www.w3.org/2000/svg" width="19.642" height="20.263" viewBox="0 0 19.642 20.263">
    <g id="Grupo_6" data-name="Grupo 6" transform="translate(-2.5 -1.9)">
      <path id="Caminho_957" data-name="Caminho 957" d="M18.535,21.663H6.107A3.107,3.107,0,0,1,3,18.556V8.991A3.106,3.106,0,0,1,4.6,6.275l6.214-3.452a3.109,3.109,0,0,1,3.018,0l6.214,3.452a3.108,3.108,0,0,1,1.6,2.716v9.565A3.107,3.107,0,0,1,18.535,21.663Z" transform="translate(0)" fill="#f4f4f4" stroke="#f69525" stroke-width="1"/>
      <path id="Caminho_958" data-name="Caminho 958" d="M15.214,21.286H9V15.071A2.071,2.071,0,0,1,11.071,13h2.071a2.071,2.071,0,0,1,2.071,2.071Z" transform="translate(0.214 0.377)" fill="#f4f4f4" stroke="#f69525" stroke-width="1"/>
    </g>
  </svg>
  