<svg xmlns="http://www.w3.org/2000/svg" width="20" height="18.676" viewBox="0 0 20 18.676">
  <path id="Caminho_1273" data-name="Caminho 1273" d="M2.179,2.25a.679.679,0,0,0,0,1.357h.679v9.5a2.714,2.714,0,0,0,2.714,2.714H6.666L5.606,19a.679.679,0,1,0,1.288.429l.3-.893h7.616l.3.893A.679.679,0,0,0,16.393,19l-1.059-3.178h1.094a2.714,2.714,0,0,0,2.714-2.714v-9.5h.679a.679.679,0,0,0,0-1.357ZM8.1,15.821H13.9l.452,1.357H7.643Zm7.315-8.138a.679.679,0,1,0-.679-1.175,11.59,11.59,0,0,0-3.219,2.76l-1.391-1.39a.679.679,0,0,0-.959,0L6.449,10.592a.679.679,0,1,0,.959.959L9.643,9.316l1.463,1.464a.679.679,0,0,0,1.037-.092,10.235,10.235,0,0,1,3.268-3Z" transform="translate(-1 -1.75)" fill="none" stroke="#f69525" stroke-width="1" fill-rule="evenodd"/>
</svg>
