<svg xmlns="http://www.w3.org/2000/svg" width="20.159" height="21.232" viewBox="0 0 20.159 21.232">
  <path id="Caminho_1274" data-name="Caminho 1274" d="M11.387,2.25A1.946,1.946,0,0,0,9.468,3.876L9.283,4.988a.523.523,0,0,1-.308.361,7.774,7.774,0,0,0-1.023.591.516.516,0,0,1-.467.086L6.43,5.63a1.945,1.945,0,0,0-2.368.85L3.105,8.137a1.945,1.945,0,0,0,.448,2.475l.872.718a.515.515,0,0,1,.16.446,7.883,7.883,0,0,0,0,1.182.522.522,0,0,1-.159.446l-.873.718A1.945,1.945,0,0,0,3.105,16.6l.957,1.657A1.945,1.945,0,0,0,6.43,19.1l1.057-.4a.522.522,0,0,1,.467.085,7.676,7.676,0,0,0,1.022.591.522.522,0,0,1,.308.363l.185,1.111a1.946,1.946,0,0,0,1.919,1.626H13.3a1.947,1.947,0,0,0,1.919-1.626l.185-1.112a.524.524,0,0,1,.308-.362,7.676,7.676,0,0,0,1.022-.591.519.519,0,0,1,.467-.085l1.058.4a1.945,1.945,0,0,0,2.366-.85l.958-1.657a1.945,1.945,0,0,0-.448-2.475l-.872-.718a.515.515,0,0,1-.16-.446,7.9,7.9,0,0,0,0-1.182.519.519,0,0,1,.159-.446l.872-.718a1.945,1.945,0,0,0,.449-2.475l-.957-1.657A1.945,1.945,0,0,0,18.26,5.63l-1.058.4a.518.518,0,0,1-.466-.086,7.771,7.771,0,0,0-1.022-.591.516.516,0,0,1-.308-.361L15.22,3.876A1.945,1.945,0,0,0,13.3,2.25H11.388Zm.957,14.007a3.891,3.891,0,1,0-3.891-3.891,3.891,3.891,0,0,0,3.891,3.891Z" transform="translate(-2.265 -1.75)" fill="#fff" stroke="#0e3254" stroke-width="1" fill-rule="evenodd"/>
</svg>
