<svg xmlns="http://www.w3.org/2000/svg" width="13" height="11" viewBox="0 0 13 11">
  <g id="Grupo_300" data-name="Grupo 300" transform="translate(-427.524 -565.524)">
    <rect id="Retângulo_306" data-name="Retângulo 306" width="13" height="11" rx="2" transform="translate(427.524 565.524)" fill="#0e3254"/>
    <path id="Caminho_1282" data-name="Caminho 1282" d="M5.433,4.376q.759,0,1.5.056A1.359,1.359,0,0,1,8.193,5.688q.028.365.042.734l-.7-.7a.313.313,0,1,0-.442.442L8.341,7.413a.313.313,0,0,0,.442,0l1.252-1.252a.313.313,0,0,0-.442-.442l-.731.731q-.014-.407-.045-.809A1.984,1.984,0,0,0,6.984,3.808a20.621,20.621,0,0,0-3.1,0A1.984,1.984,0,0,0,2.049,5.641c-.007.093-.014.187-.019.28a.313.313,0,1,0,.625.038q.008-.136.018-.272A1.359,1.359,0,0,1,3.929,4.432q.745-.056,1.5-.056Zm-2.908,2.6a.313.313,0,0,0-.442,0L.831,8.223a.313.313,0,1,0,.442.442L2,7.934q.014.407.045.809a1.984,1.984,0,0,0,1.833,1.833,20.617,20.617,0,0,0,3.1,0A1.984,1.984,0,0,0,8.817,8.744q.011-.14.019-.28a.313.313,0,1,0-.625-.038q-.008.136-.018.272A1.359,1.359,0,0,1,6.937,9.952a20.008,20.008,0,0,1-3.008,0A1.359,1.359,0,0,1,2.673,8.7q-.028-.367-.042-.734l.7.7a.313.313,0,0,0,.442-.442L2.525,6.971Z" transform="translate(428.598 563.831)" fill="#fff" fill-rule="evenodd"/>
  </g>
</svg>
