<svg xmlns="http://www.w3.org/2000/svg" width="11.5" height="11.5" viewBox="0 0 11.5 11.5">
  <path id="Caminho_1280" data-name="Caminho 1280" d="M6,3.164a2.653,2.653,0,0,1,4.007,0A2.654,2.654,0,0,1,12.837,6a2.654,2.654,0,0,1,0,4.007A2.654,2.654,0,0,1,10,12.836a2.653,2.653,0,0,1-4.007,0A2.653,2.653,0,0,1,3.163,10,2.654,2.654,0,0,1,3.164,6,2.654,2.654,0,0,1,6,3.164ZM10.129,6.93a.442.442,0,1,0-.719-.514L7.5,9.087,6.543,8.13a.442.442,0,0,0-.625.625l1.327,1.327a.442.442,0,0,0,.672-.055Z" transform="translate(-2.25 -2.25)" fill="#7cb342" fill-rule="evenodd"/>
</svg>
