<svg xmlns="http://www.w3.org/2000/svg" width="28.896" height="28.896" viewBox="0 0 28.896 28.896">
  <path id="Caminho_1293" data-name="Caminho 1293" d="M16.7,2.25A14.448,14.448,0,1,0,31.146,16.7,14.448,14.448,0,0,0,16.7,2.25ZM14.149,12.579a1.111,1.111,0,1,0-1.571,1.571L15.127,16.7l-2.549,2.549a1.111,1.111,0,1,0,1.571,1.571L16.7,18.269l2.549,2.549a1.111,1.111,0,1,0,1.571-1.571L18.269,16.7l2.549-2.549a1.111,1.111,0,1,0-1.571-1.571L16.7,15.127Z" transform="translate(-2.25 -2.25)" fill="red" fill-rule="evenodd"/>
</svg>
