<svg xmlns="http://www.w3.org/2000/svg" width="18" height="21" viewBox="0 0 18 21">
  <path id="Caminho_1289" data-name="Caminho 1289" d="M16.5,4.478V4.7q1.948.178,3.878.512a.75.75,0,1,1-.256,1.478l-.209-.035-1,13.07a3,3,0,0,1-2.991,2.77H8.084a3,3,0,0,1-2.991-2.77L4.087,6.66l-.209.035a.75.75,0,1,1-.256-1.478Q5.55,4.883,7.5,4.7V4.478a2.929,2.929,0,0,1,2.816-2.951q1.684-.054,3.369,0A2.929,2.929,0,0,1,16.5,4.478ZM10.364,3.026q1.636-.052,3.273,0A1.43,1.43,0,0,1,15,4.478v.113a49.488,49.488,0,0,0-6,0V4.478A1.43,1.43,0,0,1,10.364,3.026Zm-.355,5.945a.751.751,0,0,0-1.5.058l.347,9a.75.75,0,1,0,1.5-.058l-.346-9Zm5.48.058a.75.75,0,1,0-1.5-.058l-.347,9a.751.751,0,0,0,1.5.058l.345-9Z" transform="translate(-3 -1.5)" fill="red" fill-rule="evenodd"/>
</svg>
