<svg xmlns="http://www.w3.org/2000/svg" width="16.508" height="17.756" viewBox="0 0 16.508 17.756">
  <path id="Caminho_1275" data-name="Caminho 1275" d="M5.044,8.4a6.149,6.149,0,1,1,12.3,0v.683a7.484,7.484,0,0,0,1.929,5.028.683.683,0,0,1-.271,1.1,22.368,22.368,0,0,1-4.4,1.132,3.416,3.416,0,1,1-6.814,0,22.4,22.4,0,0,1-4.4-1.133.683.683,0,0,1-.271-1.1,7.485,7.485,0,0,0,1.93-5.028Zm4.1,8.107a2.05,2.05,0,1,0,4.1,0,22.826,22.826,0,0,1-4.1,0Z" transform="translate(-2.939 -2.25)" fill="#0e3254" fill-rule="evenodd"/>
</svg>
