<svg xmlns="http://www.w3.org/2000/svg" width="17.163" height="21.548" viewBox="0 0 17.163 21.548">
  <g id="Grupo_7" data-name="Grupo 7" transform="translate(-3.25 -0.913)">
    <path id="Caminho_959" data-name="Caminho 959" d="M5.577,1.5H8.865a3.654,3.654,0,0,1,3.654,3.654V6.98a1.827,1.827,0,0,0,1.827,1.827h1.827a3.654,3.654,0,0,1,3.654,3.654v7.673A1.827,1.827,0,0,1,18,21.96H5.577A1.827,1.827,0,0,1,3.75,20.134V3.327A1.827,1.827,0,0,1,5.577,1.5Zm6.942,10.23a.731.731,0,0,0-1.461,0v2.192H8.865a.731.731,0,1,0,0,1.461h2.192v2.192a.731.731,0,0,0,1.461,0V15.384h2.192a.731.731,0,0,0,0-1.461H12.519Z" transform="translate(0)" fill="#fff" stroke="#0e3254" stroke-width="1" fill-rule="evenodd"/>
    <path id="Caminho_960" data-name="Caminho 960" d="M14.217,5.162a5.1,5.1,0,0,0-1.246-3.346A9.517,9.517,0,0,1,19.755,8.6a5.1,5.1,0,0,0-3.346-1.246H14.583a.365.365,0,0,1-.365-.365Z" transform="translate(-0.237 -0.008)" fill="#fff" stroke="#0e3254" stroke-width="1"/>
  </g>
</svg>
